<svg id="Layer_1" enable-background="new 0 0 512.009 512.009" height="512" viewBox="0 0 512.009 512.009" width="512" xmlns="http://www.w3.org/2000/svg"><g><g fill="#0023c4"><path d="m19.995 323.639c1.797 0 3.623-.244 5.438-.755 51.763-14.592 94.28-19.423 137.854-15.664 11.022.952 20.696-7.202 21.646-18.207s-7.202-20.696-18.206-21.645c-47.947-4.138-96.292 1.27-152.146 17.017-10.631 2.997-16.82 14.045-13.823 24.676 2.484 8.817 10.506 14.579 19.237 14.578z"/><path d="m314.031 420.002c10 0 18.641-7.489 19.838-17.665 1.29-10.97-6.556-20.91-17.526-22.2-25.948-3.053-49.175-7.971-71.637-12.727-33.166-7.022-64.492-13.655-102.303-14.407-38.536-.763-80.357 5.365-127.824 18.747-10.631 2.997-16.82 14.045-13.823 24.676 2.998 10.632 14.047 16.821 24.677 13.823 44.227-12.468 81.14-17.945 116.176-17.253 34.024.677 63.552 6.928 94.813 13.547 23.341 4.942 63.583 13.459 77.609 13.459z"/><path d="m25.432 144.14c97.391-27.456 150.799-16.599 212.642-4.027 22.856 4.646 64.932 12.779 75.957 12.779 10 0 18.641-7.489 19.838-17.665 1.29-10.97-6.556-20.91-17.526-22.2-25.445-2.994-48.248-7.63-70.3-12.113-64.153-13.042-124.748-25.36-231.464 4.726-10.631 2.997-16.82 14.045-13.823 24.676 2.997 10.633 14.046 16.825 24.676 13.824z"/><path d="m19.995 57.639c1.797 0 3.623-.244 5.438-.755 51.763-14.592 94.28-19.423 137.854-15.664 11.022.958 20.696-7.202 21.646-18.207s-7.202-20.696-18.206-21.645c-47.947-4.139-96.292 1.27-152.146 17.017-10.633 2.997-16.823 14.045-13.826 24.676 2.487 8.817 10.509 14.579 19.24 14.578z"/><path d="m253.041 56.749c34.515 6.979 71.693 13.266 118.685 13.266 34.938 0 75.308-3.478 124.013-12.732 10.852-2.062 17.977-12.53 15.915-23.382-2.063-10.852-12.536-17.977-23.382-15.915-107.098 20.349-171.015 10.939-227.303-.443-10.819-2.193-21.378 4.813-23.567 15.639-2.19 10.826 4.812 21.378 15.639 23.567z"/><path d="m488.272 192.352c-46.365 8.81-86.002 12.95-121.097 12.649-48.4-.411-85.546-8.274-121.47-15.878-19.884-4.208-38.664-8.184-59.015-10.941-10.947-1.483-21.021 6.188-22.505 17.133-1.482 10.946 6.188 21.021 17.134 22.504 18.885 2.559 36.963 6.385 56.103 10.437 37.855 8.013 79.168 16.299 131.583 16.744 36.771 0 79.438-4.365 126.733-13.352 10.852-2.062 17.977-12.53 15.915-23.382-2.062-10.851-12.535-17.979-23.381-15.914z"/><path d="m488.272 283.986c-107.098 20.35-171.015 10.938-227.303-.443-10.819-2.19-21.378 4.813-23.567 15.639s4.813 21.378 15.64 23.567c34.515 6.979 71.693 13.266 118.685 13.266 34.938 0 75.308-3.478 124.013-12.732 10.852-2.062 17.977-12.53 15.915-23.382-2.064-10.852-12.537-17.981-23.383-15.915z"/><path d="m488.272 459.986c-117.687 22.362-181.486 9.105-243.187-3.714-19.679-4.089-38.267-7.951-58.395-10.678-10.947-1.481-21.021 6.188-22.505 17.133-1.482 10.946 6.188 21.021 17.134 22.504 18.736 2.539 36.656 6.262 55.629 10.204 38.251 7.947 79.619 16.543 134.757 16.543 34.921 0 75.369-3.449 124.033-12.696 10.852-2.062 17.977-12.53 15.915-23.382-2.062-10.851-12.535-17.978-23.381-15.914z"/></g><g fill="#ff5cf3"><path d="m488.272 370.986c-35.998 6.84-65.849 10.778-91.258 12.039-11.032.547-19.531 9.935-18.984 20.967.531 10.695 9.368 19.009 19.959 19.009.334 0 .671-.008 1.008-.025 27.27-1.354 58.914-5.505 96.742-12.693 10.852-2.062 17.977-12.53 15.915-23.382-2.063-10.852-12.536-17.978-23.382-15.915z"/><path d="m398.005 157c25.238-1.252 55.162-5.372 97.733-13.461 10.852-2.062 17.977-12.53 15.915-23.382-2.063-10.852-12.536-17.978-23.382-15.915-40.665 7.727-67.957 11.517-91.258 12.673-11.032.547-19.531 9.935-18.984 20.967.532 10.695 9.386 19.118 19.976 19.118z"/><path d="m82.216 445.825c-21.501 3.027-43.625 7.79-67.638 14.56-10.631 2.997-16.82 14.045-13.823 24.676 2.486 8.817 10.509 14.578 19.239 14.578 1.797 0 3.623-.244 5.438-.755 22.263-6.276 42.661-10.675 62.362-13.449 10.938-1.54 18.556-11.655 17.016-22.593-1.54-10.939-11.667-18.554-22.594-17.017z"/><path d="m82.216 179.195c-20.292 2.857-42.531 6.477-67.638 13.555-10.631 2.997-16.82 14.045-13.823 24.676 2.486 8.817 10.509 14.579 19.239 14.579 1.797 0 3.623-.244 5.438-.756 22.82-6.433 43.459-9.783 62.362-12.445 10.938-1.54 18.556-11.655 17.016-22.593-1.54-10.939-11.667-18.557-22.594-17.016z"/></g></g></svg>