<svg id="Layer_1" enable-background="new 0 0 512 512" height="512" viewBox="0 0 512 512" width="512" xmlns="http://www.w3.org/2000/svg"><g><path d="m242.823 480.424c-94.516-30.798-162.823-119.63-162.823-224.424 0-109.703 74.857-201.908 176.274-228.36l-7.519-7.519c-126.986 3.83-228.755 107.964-228.755 235.879 0 122.388 93.166 223.011 212.444 234.833 3.462-3.467 6.92-6.939 10.379-10.409z" fill="#cee1f2"/><path d="m335 498.73c-8.228 0-15.936-5.115-18.847-13.312-3.696-10.409 1.744-21.843 12.153-25.54 85.948-30.524 143.694-112.347 143.694-203.606 0-90.383-57.011-171.942-141.864-202.947-10.375-3.791-15.712-15.274-11.921-25.649 3.79-10.374 15.27-15.715 25.649-11.921 48.807 17.834 90.595 49.731 120.847 92.243 30.936 43.473 47.289 94.745 47.289 148.274 0 108.151-68.441 205.122-170.307 241.3-2.212.785-4.472 1.158-6.693 1.158z" fill="#ff5cf3"/><path d="m222.608 508.995c-2.9 0-5.815-.236-8.723-.717-59.128-9.782-113.267-40.348-152.443-86.066-39.622-46.24-61.442-105.268-61.442-166.212s21.82-119.972 61.442-166.212c39.177-45.719 93.315-76.285 152.443-86.066 15.474-2.558 31.222 1.799 43.204 11.962 12.018 10.193 18.911 25.071 18.911 40.818v398.995c0 15.748-6.893 30.625-18.91 40.818-9.731 8.254-21.946 12.68-34.482 12.68zm-2.193-465.809c-104.54 17.294-180.415 106.795-180.415 212.814s75.875 195.52 180.415 212.814c5.278.875 9.036-1.506 10.801-3.003 1.787-1.515 4.784-4.87 4.784-10.313v-398.996c0-5.443-2.958-8.846-4.784-10.313-5.216-4.189-10.017-3.133-10.801-3.003z" fill="#0023c4"/></g></svg>