<svg id="Layer_1" enable-background="new 0 0 512 512" height="512" viewBox="0 0 512 512" width="512" xmlns="http://www.w3.org/2000/svg"><g><path d="m80 260.789c0-81.583 41.458-158.696 104.419-204.317-.061-.125-.116-.252-.179-.377-2.993-5.996-6.749-11.762-8.778-18.159-90.661 33.229-155.462 120.831-155.462 222.853 0 102.784 65.715 190.204 157.415 222.581 2.292-6.003 4.588-12.001 7.26-17.81-63.821-44.303-104.675-121.379-104.675-204.771z" fill="#cee1f2"/><path d="m177 503.248c-2.222 0-4.479-.373-6.693-1.159-101.866-36.178-170.307-133.149-170.307-241.3 0-53.528 16.353-104.801 47.29-148.275 30.252-42.512 72.04-74.408 120.846-92.242 10.376-3.794 21.858 1.548 25.649 11.921 3.791 10.375-1.546 21.858-11.921 25.649-84.853 31.005-141.864 112.563-141.864 202.947 0 91.259 57.746 173.082 143.693 203.606 10.409 3.696 15.85 15.132 12.153 25.54-2.91 8.196-10.619 13.313-18.846 13.313z" fill="#0023c4"/><path d="m262.655 511.903c-19.891 0-29.89-11.805-32.614-22.852-3.455-14.006 3.774-30.197 16.458-36.859 78.585-41.275 125.501-114.62 125.501-196.197 0-83.399-48.769-160.127-124.275-195.601-13.195-5.601-21.024-20.552-18.279-35.163 2.179-11.595 12.276-25.135 33.561-25.135.194 0 .389.003.583.009 66.78 1.947 129.253 29.43 175.91 77.385 46.752 48.053 72.5 111.447 72.5 178.505 0 33.983-6.538 67.127-19.433 98.51-12.493 30.404-30.358 57.781-53.1 81.368-47.271 49.029-110.064 76.03-176.812 76.03zm37.554-467.454c27.966 19.078 51.987 43.59 70.628 72.289 26.929 41.459 41.163 89.614 41.163 139.257 0 48.962-14.508 96.692-41.956 138.03-19.352 29.145-44.761 54.721-74.536 75.223 99.884-16.305 176.492-105.726 176.492-213.253 0-104.696-72.909-191.331-171.791-211.546z" fill="#ff5cf3"/></g></svg>