<svg id="Layer_1" enable-background="new 0 0 512 512" height="512" viewBox="0 0 512 512" width="512" xmlns="http://www.w3.org/2000/svg"><g><path d="m325.21 460.771c2.672 5.809 4.968 11.807 7.26 17.81 91.7-32.377 157.415-119.797 157.415-222.581 0-102.021-64.801-189.623-155.462-222.853-2.029 6.397-5.785 12.163-8.778 18.159-.063.125-.118.252-.179.377 62.961 45.621 104.419 122.734 104.419 204.317 0 83.392-40.854 160.469-104.675 204.771z" fill="#cee1f2"/><g><path d="m80 256c0-81.583 41.458-158.696 104.419-204.317-.061-.125-.116-.252-.179-.377-2.993-5.996-6.749-11.762-8.778-18.159-90.661 33.23-155.462 120.832-155.462 222.853 0 102.784 65.715 190.204 157.415 222.581 2.292-6.003 4.588-12.001 7.26-17.81-63.821-44.302-104.675-121.379-104.675-204.771z" fill="#cee1f2"/><path d="m177 498.459c-2.222 0-4.479-.373-6.693-1.159-101.866-36.178-170.307-133.148-170.307-241.3 0-53.528 16.353-104.801 47.29-148.275 30.252-42.512 72.04-74.408 120.846-92.242 10.376-3.794 21.858 1.547 25.649 11.921 3.791 10.375-1.546 21.858-11.921 25.649-84.853 31.005-141.864 112.564-141.864 202.947 0 91.259 57.746 173.082 143.693 203.606 10.409 3.696 15.85 15.132 12.153 25.54-2.91 8.196-10.619 13.313-18.846 13.313z" fill="#0023c4"/><path d="m289.393 508.995c-12.537 0-24.751-4.426-34.482-12.68-12.018-10.193-18.911-25.07-18.911-40.818v-398.994c0-15.748 6.893-30.625 18.911-40.818 11.981-10.162 27.726-14.524 43.204-11.962 59.128 9.781 113.267 40.348 152.443 86.066 39.621 46.24 61.442 105.268 61.442 166.211s-21.821 119.972-61.442 166.211c-39.176 45.719-93.315 76.285-152.443 86.066-2.907.482-5.824.718-8.722.718zm-.056-465.997c-4.106 0-7.05 1.916-8.553 3.191-1.787 1.516-4.784 4.87-4.784 10.313v398.994c0 5.443 2.997 8.798 4.784 10.313 1.765 1.497 5.511 3.872 10.802 3.004 104.539-17.293 180.414-106.794 180.414-212.813s-75.875-195.52-180.414-212.814c-.784-.129-1.534-.188-2.249-.188z" fill="#ff5cf3"/></g></g></svg>