<svg id="Layer_1" enable-background="new 0 0 512.001 512.001" height="512" viewBox="0 0 512.001 512.001" width="512" xmlns="http://www.w3.org/2000/svg"><g><path d="m133.368 129.612c-4.629-5.762-9.154-11.505-14.01-17.033-38.109 9.457-66.358 43.888-66.358 84.922 0 11.196 2.106 21.9 5.938 31.74-23.726 12.417-39.735 37.57-38.908 66.392 1.061 36.967 30.295 67.533 67.183 70.178 4.762.342 9.431.214 13.971-.333.072-3.142.329-6.282.671-9.444.071-1.553.208-3.106.438-4.663-14.222-11.736-23.293-29.49-23.293-49.37 0-21.526 14.809-31.741 31.105-43.339 5.304-3.775 7.476-10.518 5.321-16.661-2.308-6.584-5.659-26.573-5.414-34 1-30.356 20.987-47 45.987-44.283 1.632.177 5.219 1.153 9.016 2.22-10.98-11.724-21.585-23.803-31.647-36.326z" fill="#cee1f2"/><path d="m506.143 506.143c-3.905 3.905-9.024 5.857-14.143 5.857s-10.237-1.952-14.143-5.857l-368.525-368.526c-22.053 11.495-36.332 34.512-36.332 59.884 0 8.449 1.539 16.687 4.575 24.483 3.697 9.495-.335 20.252-9.362 24.977-17.402 9.108-28.213 26.941-28.213 46.54 0 28.948 23.775 52.5 53 52.5 11.046 0 20 8.954 20 20s-8.954 20-20 20c-51.28 0-93-41.495-93-92.5 0-28.843 13.277-55.51 35.5-72.856-1.662-7.559-2.5-15.298-2.5-23.144 0-36.154 18.217-69.306 47.218-88.997l-74.36-74.361c-7.811-7.811-7.811-20.475 0-28.285s20.475-7.811 28.285 0l472 472c7.811 7.811 7.811 20.475 0 28.285zm-346.375-428.319c8.739 6.754 21.301 5.147 28.056-3.591 16.57-21.436 42.805-34.232 70.177-34.232 47.627 0 86.252 37.258 87.936 84.821.188 5.323 2.492 10.352 6.4 13.97 3.909 3.618 9.121 5.532 14.421 5.306 1.562-.065 2.949-.097 4.243-.097 55.691 0 101 45.309 101 101 0 29.849-13.414 58.146-36.804 77.636-8.485 7.07-9.632 19.682-2.561 28.168 3.955 4.747 9.644 7.197 15.375 7.197 4.514 0 9.054-1.521 12.793-4.637 32.536-27.111 51.196-66.609 51.196-108.364 0-73.415-56.396-133.905-128.143-140.419-4.795-26.009-17.536-49.88-36.878-68.591-23.99-23.209-55.591-35.99-88.979-35.99-39.668 0-77.732 18.604-101.823 49.768-6.756 8.739-5.147 21.299 3.591 28.055z" fill="#0023c4"/><path d="m195 328.001c0-13.807-11.193-25-25-25s-25 11.193-25 25 11.193 25 25 25 25-11.193 25-25zm80 159c0-13.807-11.193-25-25-25s-25 11.193-25 25 11.193 25 25 25c13.808 0 25-11.193 25-25zm0-80c0-13.807-11.193-25-25-25s-25 11.193-25 25 11.193 25 25 25c13.808 0 25-11.193 25-25zm80 80c0-13.807-11.193-25-25-25s-25 11.193-25 25 11.193 25 25 25 25-11.193 25-25zm-160-80c0-13.807-11.193-25-25-25s-25 11.193-25 25 11.193 25 25 25 25-11.193 25-25zm0 80c0-13.807-11.193-25-25-25s-25 11.193-25 25 11.193 25 25 25 25-11.193 25-25z" fill="#ff5cf3"/></g></svg>