<svg id="Layer_1" enable-background="new 0 0 511.973 511.973" height="512" viewBox="0 0 511.973 511.973" width="512" xmlns="http://www.w3.org/2000/svg"><g><path d="m126.972 258.486c0-121.084 90.422-221.046 207.425-236.051-9.965-1.271-20.115-1.949-30.425-1.949-131.444 0-238 106.556-238 238 0 81.186 65.814 147 147 147 10.459 0 20.659-1.1 30.5-3.177-66.548-14.043-116.5-73.096-116.5-143.823z" fill="#cee1f2"/><path d="m212.972 425.486c-92.084 0-167-74.916-167-167 0-68.914 26.837-133.703 75.566-182.434 48.73-48.729 113.52-75.566 182.434-75.566 40.508 0 79.294 9.128 115.281 27.13 34.298 17.156 64.903 42.272 88.508 72.631 6.78 8.72 5.207 21.285-3.513 28.065-8.721 6.779-21.284 5.207-28.065-3.513-41.661-53.582-104.43-84.313-172.211-84.313-120.206 0-218 97.794-218 218 0 70.028 56.972 127 127 127s127-56.972 127-127c0-11.046 8.954-20 20-20s20 8.954 20 20c0 92.084-74.916 167-167 167zm177.433 10.434c48.729-48.73 75.566-113.52 75.566-182.434 0-92.084-74.916-167-167-167s-167 74.916-167 167c0 11.046 8.954 20 20 20s20-8.954 20-20c0-70.028 56.972-127 127-127s127 56.972 127 127c0 120.206-97.794 218-218 218-67.765 0-130.523-30.719-172.184-84.279-6.782-8.72-19.348-10.288-28.066-3.508-8.719 6.782-10.289 19.348-3.508 28.066 23.605 30.348 54.208 55.453 88.499 72.603 35.981 17.994 74.76 27.118 115.259 27.118 68.915 0 133.704-26.837 182.434-75.566z" fill="#0023c4"/><circle cx="256.972" cy="257.486" fill="#ff5cf3" r="25"/></g></svg>