<svg id="Layer_1" enable-background="new 0 0 512 512" height="512" viewBox="0 0 512 512" width="512" xmlns="http://www.w3.org/2000/svg"><g><path d="m204.5 399c0-19.624 5.493-37.962 15.019-53.57 5.184-8.492 7.981-18.224 7.981-28.173v-207.257c0-38.049 26.573-69.872 62.166-77.98-12.195-7.58-26.57-11.984-41.977-12.02-44.106-.102-80.189 36.939-80.189 81.045v207.277c0 9.253-2.519 18.354-7.421 26.202-9.871 15.802-15.579 34.471-15.579 54.476 0 56.885 46.115 103 103 103 4.681 0 9.287-.318 13.803-.923-33.686-16.934-56.803-51.804-56.803-92.077z" fill="#cee1f2"/><path d="m367.5 201h-40c-11.046 0-20-8.954-20-20s8.954-20 20-20h40c11.046 0 20 8.954 20 20s-8.954 20-20 20zm-33.629 275.572c23.621-23.298 36.629-54.398 36.629-87.572 0-23.073-6.438-45.574-18.616-65.072-2.868-4.591-4.384-9.987-4.384-15.605v-27.323h20c11.046 0 20-8.954 20-20s-8.954-20-20-20h-20c-22.056 0-40 17.944-40 40v27.322c0 13.12 3.617 25.845 10.459 36.798 8.204 13.135 12.541 28.309 12.541 43.88 0 22.386-8.778 43.373-24.718 59.095-15.937 15.719-37.024 24.226-59.457 23.897-44.303-.609-81.003-37.141-81.811-81.435-.295-16.116 4.027-31.813 12.498-45.393 6.86-10.997 10.487-23.737 10.487-36.842v-207.318c0-32.827 27.267-60.763 59.541-61.003.152-.001.299-.001.449-.001 28.445 0 53.136 20.101 58.804 47.948 3.78 18.572 20.265 32.052 39.195 32.052h22.012c11.046 0 20-8.954 20-20s-8.954-20-20-20l-22.011-.03c-9.454-46.449-50.597-79.97-97.999-79.97-.247 0-.499.001-.746.003-26.441.196-51.387 10.949-70.242 30.278-18.702 19.173-29.002 44.289-29.002 70.723v207.319c0 5.611-1.53 11.03-4.426 15.671-12.573 20.157-18.989 43.427-18.554 67.294.583 31.967 13.472 62.082 36.292 84.797 22.818 22.713 52.992 35.464 84.963 35.903.583.008 1.161.012 1.744.012 32.543-.001 63.151-12.542 86.352-35.428z" fill="#0023c4"/><path d="m222.5 389c0-13.807 11.193-25 25-25s25 11.193 25 25-11.193 25-25 25-25-11.193-25-25zm45-85v-123c0-11.046-8.954-20-20-20s-20 8.954-20 20v123c0 11.046 8.954 20 20 20s20-8.954 20-20z" fill="#ff5cf3"/></g></svg>