<svg id="Layer_1" enable-background="new 0 0 512 512" height="512" viewBox="0 0 512 512" width="512" xmlns="http://www.w3.org/2000/svg"><g><path d="m80 256c0-120.176 89.826-219.372 206-234.11-9.824-1.247-19.837-1.89-30-1.89-130.339 0-236 105.661-236 236s105.661 236 236 236c10.163 0 20.176-.643 30-1.89-116.174-14.738-206-113.934-206-234.11z" fill="#cee1f2"/><path d="m128 142c0-13.807 11.193-25 25-25s25 11.193 25 25-11.193 25-25 25-25-11.193-25-25zm309.02 295.02c48.351-48.353 74.98-112.64 74.98-181.02s-26.629-132.667-74.98-181.02c-48.353-48.351-112.64-74.98-181.02-74.98s-132.667 26.629-181.02 74.98c-48.351 48.353-74.98 112.64-74.98 181.02s26.629 132.667 74.98 181.02c48.353 48.351 112.64 74.98 181.02 74.98s132.667-26.629 181.02-74.98zm34.98-181.02c0 119.103-96.897 216-216 216s-216-96.897-216-216 96.897-216 216-216 216 96.897 216 216z" fill="#0023c4"/><path d="m299 398c-55.141 0-100-44.86-100-100v-84c0-55.14 44.859-100 100-100 22.789 0 45.089 7.873 62.79 22.168 17.428 14.074 29.755 33.796 34.71 55.534 2.455 10.77-4.285 21.49-15.055 23.945-10.773 2.454-21.49-4.286-23.945-15.055-6.253-27.433-30.31-46.592-58.5-46.592-33.084 0-60 26.916-60 60v84c0 33.084 26.916 60 60 60 27.766 0 51.738-18.806 58.298-45.733 2.614-10.731 13.427-17.314 24.165-14.698 10.732 2.614 17.313 13.433 14.698 24.165-10.938 44.904-50.892 76.266-97.161 76.266z" fill="#ff5cf3"/></g></svg>