<svg id="Layer_1" enable-background="new 0 0 512 512" height="512" viewBox="0 0 512 512" width="512" xmlns="http://www.w3.org/2000/svg"><g><path d="m258 20c-53.748 0-98.319 39.265-106.61 90.674-3.568-.443-7.202-.674-10.89-.674-48.325 0-87.5 39.175-87.5 87.5 0 11.196 2.106 21.9 5.938 31.74-23.726 12.417-39.735 37.57-38.908 66.392 1.061 36.967 30.295 67.533 67.183 70.178 4.762.342 9.431.214 13.971-.333.071-3.142.879-12.551 1.108-14.107-14.221-11.736-23.292-29.49-23.292-49.37 0-21.526 14.809-31.741 31.105-43.339 5.304-3.775 7.476-10.518 5.322-16.661-2.308-6.584-5.659-26.572-5.414-34 1-30.356 20.987-47 45.987-44.283 3.504.381 16.012 4.438 20.29 5.19 10.106 1.777 19.654-4.853 21.71-14.906 9.131-44.666 48.635-90 96-90 24.653 0 47.178 9.106 64.4 24.134-15.862-39.915-54.834-68.135-100.4-68.135z" fill="#cee1f2"/><path d="m93 386c-51.28 0-93-41.495-93-92.5 0-28.843 13.276-55.51 35.5-72.856-1.662-7.559-2.5-15.297-2.5-23.144 0-57.677 45.653-104.89 102.724-107.395 7.084-22.836 20.529-43.434 38.889-59.214 23.176-19.92 52.79-30.891 83.387-30.891 33.388 0 64.987 12.782 88.979 35.99 19.343 18.711 32.084 42.582 36.879 68.591 71.746 6.514 128.142 67.004 128.142 140.419 0 63.379-42.652 119.311-103.724 136.015-10.653 2.917-21.653-3.36-24.567-14.015s3.36-21.654 14.015-24.568c43.732-11.962 74.276-52.027 74.276-97.432 0-55.691-45.309-101-101-101-1.279 0-2.671.032-4.255.097-5.303.228-10.507-1.692-14.413-5.31s-6.208-8.645-6.396-13.966c-1.684-47.563-40.309-84.821-87.936-84.821-43.431 0-79.963 31.062-86.865 73.858-1.715 10.625-11.522 17.987-22.209 16.663-2.787-.346-5.622-.521-8.426-.521-37.22 0-67.5 30.28-67.5 67.5 0 8.45 1.539 16.687 4.575 24.483 3.697 9.495-.335 20.252-9.363 24.977-17.401 9.108-28.212 26.941-28.212 46.54 0 28.949 23.775 52.5 53 52.5 11.046 0 20 8.954 20 20s-8.954 20-20 20zm303 46h-20v-20c0-11.046-8.954-20-20-20s-20 8.954-20 20v20h-20c-11.046 0-20 8.954-20 20s8.954 20 20 20h20v20c0 11.046 8.954 20 20 20s20-8.954 20-20v-20h20c11.046 0 20-8.954 20-20s-8.954-20-20-20zm-153-4c0 11.046-8.954 20-20 20h-20v20c0 11.046-8.954 20-20 20s-20-8.954-20-20v-20h-20c-11.046 0-20-8.954-20-20s8.954-20 20-20h20v-20c0-11.046 8.954-20 20-20s20 8.954 20 20v20h20c11.046 0 20 8.954 20 20z" fill="#0023c4"/><path d="m326 287h-20v-20c0-11.046-8.954-20-20-20s-20 8.954-20 20v20h-20c-11.046 0-20 8.954-20 20s8.954 20 20 20h20v20c0 11.046 8.954 20 20 20s20-8.954 20-20v-20h20c11.046 0 20-8.954 20-20s-8.954-20-20-20z" fill="#ff5cf3"/></g></svg>