<svg id="Layer_1" enable-background="new 0 0 512 512" height="512" viewBox="0 0 512 512" width="512" xmlns="http://www.w3.org/2000/svg"><g><path d="m258 20c-53.748 0-98.319 39.265-106.61 90.674-3.568-.443-7.202-.674-10.89-.674-48.325 0-87.5 39.175-87.5 87.5 0 11.196 2.106 21.9 5.938 31.74-23.726 12.417-39.735 37.57-38.908 66.392 1.061 36.967 30.295 67.533 67.183 70.178 4.762.342 9.431.214 13.971-.333.071-3.142.328-6.282.671-9.444.071-1.553.209-3.106.438-4.663-14.222-11.736-23.293-29.49-23.293-49.37 0-21.526 14.809-31.741 31.105-43.339 5.304-3.775 7.476-10.518 5.322-16.661-2.308-6.584-5.659-26.572-5.414-34 1-30.356 20.987-47 45.987-44.283 3.504.381 16.012 4.438 20.29 5.19 10.106 1.777 19.654-4.853 21.71-14.906 9.131-44.666 48.635-90 96-90 24.653 0 47.178 9.106 64.4 24.134-15.862-39.915-54.834-68.135-100.4-68.135z" fill="#cee1f2"/><path d="m313.002 512c-5.249 0-10.49-2.053-14.417-6.135-7.657-7.961-7.412-20.622.549-28.279l59.26-57c7.96-7.658 20.622-7.412 28.279.549s7.412 20.622-.549 28.279l-59.26 57c-3.878 3.731-8.874 5.586-13.862 5.586zm116.863-5.586 59.26-57c7.961-7.657 8.207-20.318.549-28.279-7.657-7.961-20.318-8.208-28.279-.549l-59.26 57c-7.961 7.657-8.207 20.318-.549 28.279 3.926 4.082 9.167 6.135 14.417 6.135 4.987 0 9.983-1.855 13.862-5.586zm-316.865-140.414c0-11.046-8.954-20-20-20-29.224 0-53-23.551-53-52.5 0-19.6 10.811-37.433 28.212-46.54 9.028-4.725 13.061-15.483 9.362-24.979-3.035-7.793-4.574-16.03-4.574-24.481 0-37.22 30.28-67.5 67.5-67.5 2.803 0 5.638.175 8.427.521 10.675 1.324 20.495-6.039 22.208-16.663 6.902-42.796 43.434-73.858 86.865-73.858 47.626 0 86.252 37.258 87.936 84.821.188 5.321 2.49 10.348 6.396 13.966s9.107 5.537 14.413 5.31c1.584-.065 2.975-.097 4.255-.097 55.691 0 101 45.309 101 101 0 45.405-30.543 85.47-74.277 97.432-10.654 2.915-16.929 13.914-14.015 24.568 2.915 10.654 13.915 16.929 24.568 14.015 61.072-16.704 103.724-72.636 103.724-136.015 0-73.415-56.396-133.905-128.143-140.419-4.795-26.009-17.536-49.88-36.878-68.591-23.991-23.208-55.591-35.99-88.979-35.99-30.597 0-60.211 10.971-83.388 30.891-18.359 15.78-31.804 36.377-38.889 59.214-57.07 2.505-102.723 49.718-102.723 107.395 0 7.846.838 15.585 2.5 23.144-22.224 17.346-35.5 44.013-35.5 72.856 0 51.005 41.72 92.5 93 92.5 11.046 0 20-8.954 20-20z" fill="#0023c4"/><path d="m203.861 512c-5.195 0-10.386-2.012-14.305-6.021-7.72-7.899-7.576-20.562.324-28.283l82.26-80.398c2.388-2.334 2.059-4.861 1.363-6.57-.693-1.701-2.216-3.728-5.534-3.728h-75.938c-18.811 0-35.535-11.269-42.606-28.708-7.076-17.45-2.918-37.198 10.592-50.31l85.868-83.334c7.927-7.693 20.588-7.503 28.281.423s7.503 20.588-.423 28.281l-85.868 83.334c-2.4 2.33-2.076 4.862-1.381 6.575.692 1.706 2.214 3.738 5.538 3.738h75.938c18.775 0 35.487 11.239 42.576 28.632 7.093 17.405 2.993 37.138-10.446 50.272l-82.26 80.399c-3.891 3.803-8.937 5.698-13.979 5.698z" fill="#ff5cf3"/></g></svg>