<svg id="Layer_1" enable-background="new 0 0 512 512" height="512" viewBox="0 0 512 512" width="512" xmlns="http://www.w3.org/2000/svg"><g><path d="m335 503.249c-8.228 0-15.937-5.116-18.847-13.313-3.697-10.408 1.745-21.844 12.153-25.54 85.948-30.524 143.694-112.347 143.694-203.606 0-90.383-57.011-171.941-141.864-202.947-10.375-3.791-15.712-15.274-11.921-25.649s15.276-15.713 25.649-11.921c48.807 17.834 90.594 49.731 120.846 92.243 30.937 43.473 47.29 94.746 47.29 148.274 0 108.151-68.441 205.122-170.307 241.3-2.212.786-4.471 1.159-6.693 1.159z" fill="#ff5cf3"/><g><path d="m248.692.098c.195-.005-.194 0 0 0z" fill="#ff5cf3"/><path d="m265.501 452.194c-78.585-41.276-125.501-114.621-125.501-196.197 0-83.4 48.768-160.127 124.274-195.6 13.198-5.601 21.026-20.553 18.28-35.166-2.179-11.594-12.577-25.133-33.861-25.133-66.781 1.948-129.536 29.439-176.193 77.394-46.752 48.054-72.5 111.447-72.5 178.505 0 33.984 6.538 67.127 19.433 98.51 12.493 30.404 30.358 57.78 53.1 81.368 47.271 49.028 110.064 76.029 176.812 76.029 19.891 0 29.89-11.804 32.615-22.851 3.455-14.006-3.775-30.197-16.459-36.859zm-225.501-196.197c0-104.696 72.909-191.331 171.791-211.546-27.966 19.078-51.986 43.59-70.627 72.289-26.93 41.459-41.164 89.613-41.164 139.257 0 48.962 14.508 96.692 41.956 138.03 19.352 29.145 44.759 54.72 74.534 75.222-99.883-16.305-176.49-105.725-176.49-213.252z" fill="#0023c4"/></g></g></svg>