<svg id="Layer_1" enable-background="new 0 0 512 512" height="512" viewBox="0 0 512 512" width="512" xmlns="http://www.w3.org/2000/svg"><g><path d="m258 20c-53.748 0-98.319 39.265-106.61 90.674-3.568-.443-7.202-.674-10.89-.674-48.325 0-87.5 39.175-87.5 87.5 0 11.196 2.106 21.9 5.938 31.74-23.726 12.417-39.735 37.57-38.908 66.392 1.061 36.967 30.295 67.533 67.183 70.178 4.762.342 9.431.214 13.971-.333.071-3.142.879-12.551 1.108-14.107-14.221-11.736-23.292-29.49-23.292-49.37 0-21.526 14.809-31.741 31.105-43.339 5.304-3.775 7.476-10.518 5.322-16.661-2.308-6.584-5.659-26.572-5.414-34 1-30.356 20.987-47 45.987-44.283 3.504.381 16.012 4.438 20.29 5.19 10.106 1.777 19.654-4.853 21.71-14.906 9.131-44.666 48.635-90 96-90 24.653 0 47.178 9.106 64.4 24.134-15.862-39.915-54.834-68.135-100.4-68.135z" fill="#cee1f2"/><path d="m93 386c-51.28 0-93-41.495-93-92.5 0-28.843 13.277-55.51 35.5-72.856-1.662-7.559-2.5-15.297-2.5-23.144 0-57.677 45.653-104.89 102.723-107.396 7.084-22.836 20.53-43.434 38.889-59.214 23.177-19.919 52.791-30.89 83.388-30.89 33.388 0 64.988 12.781 88.979 35.99 19.342 18.711 32.083 42.582 36.878 68.591 71.747 6.514 128.143 67.004 128.143 140.419 0 63.379-42.652 119.311-103.723 136.015-10.654 2.92-21.653-3.36-24.568-14.015-2.914-10.654 3.36-21.653 14.015-24.567 43.733-11.962 74.276-52.029 74.276-97.433 0-55.691-45.309-101-101-101-1.293 0-2.682.031-4.243.097-5.329.214-10.512-1.688-14.421-5.306-3.908-3.618-6.212-8.646-6.4-13.97-1.684-47.563-40.31-84.821-87.936-84.821-43.431 0-79.963 31.062-86.866 73.858-1.714 10.624-11.522 17.991-22.206 16.663-2.792-.345-5.628-.521-8.428-.521-37.22 0-67.5 30.28-67.5 67.5 0 8.45 1.539 16.688 4.575 24.482 3.698 9.495-.334 20.253-9.363 24.978-17.401 9.107-28.212 26.941-28.212 46.54 0 28.948 23.776 52.5 53 52.5 11.046 0 20 8.954 20 20s-8.954 20-20 20zm267 21v-119c0-11.046-8.954-20-20-20s-20 8.954-20 20v119c0 11.046 8.954 20 20 20s20-8.954 20-20zm-90-63v-119c0-11.046-8.954-20-20-20s-20 8.954-20 20v119c0 11.046 8.954 20 20 20s20-8.954 20-20zm-90 63v-119c0-11.046-8.954-20-20-20s-20 8.954-20 20v119c0 11.046 8.954 20 20 20s20-8.954 20-20z" fill="#0023c4"/><path d="m315 487c0-13.807 11.193-25 25-25s25 11.193 25 25-11.193 25-25 25-25-11.193-25-25zm-155 25c13.807 0 25-11.193 25-25s-11.193-25-25-25-25 11.193-25 25 11.193 25 25 25zm90-63c13.807 0 25-11.193 25-25s-11.193-25-25-25-25 11.193-25 25 11.193 25 25 25z" fill="#ff5cf3"/></g></svg>