<svg id="Layer_1" enable-background="new 0 0 511.901 511.901" height="512" viewBox="0 0 511.901 511.901" width="512" xmlns="http://www.w3.org/2000/svg"><g><path d="m130.45 211.209c-21.324-26.889-14.591-66.519 14.652-84.411 80.878-49.484 181.806-48.369 263.823.185l3.726-3.745c-87.658-87.657-218.384-103.852-318.428-42.642-29.243 17.892-35.976 57.521-14.652 84.41 25.286 31.885 68.074 81.197 139.585 152.708l2.882-2.896c-43.622-45.757-72.562-79.618-91.588-103.609z" fill="#cee1f2"/><g fill="#0023c4"><g><path d="m398.972 136.917c-.765-.572.695.696 0 0z"/><path d="m441.18 123.954 17.918-17.88c7.819-7.802 7.833-20.465.03-28.284-7.802-7.818-20.465-7.833-28.284-.03l-18.027 17.988c-92.816-81.572-225.122-95.379-328.215-32.257-18.677 11.435-31.591 30.409-35.432 52.055-3.876 21.84 1.803 44.337 15.58 61.723 32.22 40.658 79.538 92.279 140.64 153.427 60.078 60.123 111.659 107.368 153.311 140.426 13.798 10.95 30.816 16.791 48.173 16.79 4.497 0 9.019-.393 13.51-1.189 21.647-3.841 40.618-16.768 52.05-35.466 62.813-102.745 49.381-234.484-31.254-327.303zm-2.874 306.437c-5.54 9.061-14.386 15.079-24.911 16.946-10.555 1.871-21.425-.879-29.829-7.548-40.456-32.107-90.884-78.325-149.882-137.367-60.022-60.068-106.313-110.534-137.584-149.997-6.672-8.419-9.422-19.313-7.545-29.89 1.87-10.535 7.884-19.39 16.935-24.932 36.901-22.594 78.22-33.593 119.661-33.593 62.568 0 125.694 24.744 173.821 72.907 78.111 80.071 95.486 201.628 39.334 293.474z"/></g><path d="m150.662 356.945-76.617 78.467c-7.804 7.729-20.44 7.708-28.215-.068-7.798-7.798-7.798-20.485 0-28.283 7.811-7.811 7.811-20.475 0-28.285s-20.474-7.811-28.284 0c-23.394 23.395-23.394 61.459 0 84.854 11.697 11.696 27.062 17.545 42.426 17.545s30.729-5.849 42.426-17.545c.056-.057.112-.113.168-.17l76.716-78.568c7.716-7.903 7.565-20.565-.337-28.282-7.904-7.721-20.566-7.568-28.283.335z"/></g><path d="m334.955 339.919c-4.009 0-8.057-1.202-11.573-3.702-9.002-6.401-11.111-18.888-4.709-27.89 27.199-38.251 39.642-102.554 39.764-103.198 2.06-10.848 12.518-17.975 23.37-15.926 10.849 2.054 17.981 12.504 15.935 23.354-.562 2.979-14.138 73.482-46.47 118.95-3.901 5.486-10.063 8.412-16.317 8.412zm-108.236-125.702c38.134-27.116 101.093-38.491 101.725-38.604 10.872-1.916 18.136-12.28 16.227-23.155-1.91-10.879-12.273-18.159-23.157-16.239-2.935.515-72.398 12.991-117.974 45.398-9.002 6.401-11.11 18.888-4.709 27.89 3.901 5.486 10.061 8.412 16.316 8.412 4.008-.001 8.056-1.202 11.572-3.702z" fill="#ff5cf3"/></g></svg>